<?xml version="1.0" encoding="UTF-8"?>
<svg width="700pt" height="700pt" version="1.1" viewBox="0 0 700 700" xmlns="http://www.w3.org/2000/svg">
 <path d="m118.84 326.64c1.0977 3.0586 2.5195 5.9961 4.4102 8.5859 0.046875 0.070312 0.11719 0.14062 0.1875 0.21094 2.0312 2.7539 4.4336 5.2031 7.1641 7.2578 0.046875 0.046875 0.09375 0.09375 0.14062 0.11719 2.8008 2.1016 5.9258 3.8047 9.3086 4.9922 3.6641 1.3086 7.5586 2.1484 11.668 2.1484h11.668v-186.67h-11.668c-19.297 0-35 15.703-35 35v116.67c0 3.4297 0.65234 6.6719 1.5625 9.8008 0.16406 0.67188 0.34766 1.2773 0.55859 1.8867zm44.52 128.36v-35h-11.668c-4.1055 0-8.0039 0.83984-11.668 2.1484-3.3594 1.1914-6.4883 2.8945-9.3086 4.9922-0.042969 0.046875-0.089844 0.09375-0.13672 0.11719-2.7305 2.0547-5.1328 4.5273-7.1641 7.2578-0.046875 0.070313-0.11719 0.14062-0.1875 0.21094-1.8672 2.5898-3.2891 5.5312-4.4102 8.5859-0.21094 0.60547-0.39844 1.2148-0.58203 1.8438-0.93359 3.125-1.5625 6.3672-1.5625 9.7969v41.836l-43.262 43.262c-3.3359 3.3359-4.3398 8.3516-2.5195 12.715 1.7969 4.3633 6.0664 7.2109 10.781 7.2109h93.332c19.297 0 35-15.703 35-35v-12.855c-26.578-5.3906-46.645-28.957-46.645-57.121zm-23.332-82.855v25.691c3.7812-0.75 7.6758-1.168 11.668-1.168h11.668v-23.332h-11.668c-3.9922-0.003907-7.8867-0.42188-11.668-1.1914zm408.33-22.145c4.1055 0 8.0039-0.83984 11.668-2.1484 3.3594-1.1914 6.4883-2.8945 9.3086-4.9922 0.046875-0.046875 0.09375-0.09375 0.14062-0.11719 2.7305-2.0547 5.1328-4.5273 7.1641-7.2578 0.046875-0.070313 0.11719-0.14062 0.1875-0.21094 1.8672-2.5898 3.2891-5.5312 4.4102-8.5859 0.21094-0.60547 0.39844-1.2148 0.58203-1.8438 0.93359-3.125 1.5625-6.3711 1.5625-9.8008v-116.67c0-19.297-15.703-35-35-35h-11.668v186.67h11.645zm-268.31-268.36v46.668c0 6.4414-5.2266 11.668-11.668 11.668h81.668c-25.738 0-46.668-20.93-46.668-46.668s20.93-46.668 46.668-46.668 46.668 20.93 46.668 46.668-20.93 46.668-46.668 46.668h81.668c-6.4414 0-11.668-5.2266-11.668-11.668s5.2266-11.668 11.668-11.668 11.668 5.2266 11.668 11.668-5.2266 11.668-11.668 11.668h79.801c-0.11719-0.67578-0.21094-1.3516-0.30469-2.0547-0.95703-5.7617-2.125-11.48-3.6406-17.059-0.21094-0.81641-0.39844-1.6328-0.62891-2.4258-2.543-8.7266-6-17.035-9.8477-25.109h-65.379c-6.4414 0-11.668-5.2266-11.668-11.668 0-6.4414 5.2266-11.668 11.668-11.668h58.332v-58.328c0-6.4414-5.2266-11.668-11.668-11.668s-11.668 5.2266-11.668 11.668v37.566c-0.88672-0.91016-1.8672-1.7031-2.7773-2.5664h-78.891c-6.4414 0-11.668-5.2266-11.668-11.668s5.2266-11.668 11.668-11.668h48.578c-5.9023-3.5469-11.969-6.8594-18.316-9.6367-0.32813-0.14062-0.65234-0.32812-0.98047-0.48828-4.3164-1.8672-8.75-3.4531-13.23-4.9453-0.67578-0.23438-1.3086-0.51172-1.9844-0.72266-4.1992-1.3281-8.5391-2.3789-12.879-3.3828-1.0039-0.23438-1.9609-0.55859-2.9648-0.76953-4.2227-0.88672-8.5391-1.4688-12.879-2.0078-1.1914-0.14062-2.332-0.42188-3.5234-0.53516-5.5312-0.55859-11.152-0.86328-16.824-0.86328-30.543 0-58.965 8.6797-83.418 23.332h48.418c6.4414 0 11.668 5.2266 11.668 11.668 0 6.4414-5.2266 11.668-11.668 11.668l-78.672-0.003907c-7.375 7.1875-14.258 14.887-20.16 23.332h52.172c6.4414 0 11.668 5.2266 11.668 11.668zm268.31 315.02c3.9883 0 7.8867 0.42188 11.668 1.1914v-25.691c-3.7812 0.76953-7.6758 1.1914-11.668 1.1914h-11.668v23.332zm-198.33-326.67c-12.879 0-23.332 10.453-23.332 23.332 0 12.879 10.453 23.332 23.332 23.332 12.879 0 23.332-10.453 23.332-23.332 0-12.879-10.453-23.332-23.332-23.332zm-93.332 23.332h-54.02c-3.5703 7.5117-6.6953 15.262-9.1016 23.332h63.117zm140 326.67h23.332v-23.332h-23.332zm116.66 35v-291.67h-326.67v291.67c0 15.191 9.7773 28.023 23.332 32.852 3.668 1.3086 7.5625 2.1484 11.672 2.1484h256.67c4.1055 0 8.0039-0.83984 11.668-2.1484 13.551-4.8281 23.328-17.66 23.328-32.852zm-70-23.332c0 6.4414-5.2266 11.668-11.668 11.668h-163.33c-6.4414 0-11.668-5.2266-11.668-11.668v-93.332c0-6.4414 5.2266-11.668 11.668-11.668h163.33c6.4414 0 11.668 5.2266 11.668 11.668zm-11.664-151.67h-163.33c-6.4414 0-11.668-5.2266-11.668-11.668 0-6.4414 5.2266-11.668 11.668-11.668h163.33c6.4414 0 11.668 5.2266 11.668 11.668-0.003906 6.4414-5.2305 11.668-11.668 11.668zm0-46.668h-163.33c-6.4414 0-11.668-5.2266-11.668-11.668 0-6.4375 5.2266-11.664 11.664-11.664h163.33c6.4414 0 11.668 5.2266 11.668 11.668 0 6.4375-5.2266 11.664-11.664 11.664zm-11.668 286.84v-6.8398h-140v6.8359l-19.926 19.926c-3.3359 3.3359-4.3398 8.3516-2.5195 12.715 1.7969 4.3633 6.0664 7.2109 10.781 7.2109h163.33c4.7148 0 8.9844-2.8477 10.781-7.2109 1.8203-4.3633 0.81641-9.3789-2.5195-12.715zm206.59 19.902-43.262-43.262v-41.836c0-3.4297-0.65234-6.6719-1.5625-9.8008-0.1875-0.60547-0.35156-1.2383-0.58203-1.8438-1.0977-3.0586-2.5195-5.9961-4.4102-8.5859-0.046875-0.070313-0.11719-0.14062-0.1875-0.21094-2.0312-2.7539-4.4336-5.2031-7.1641-7.2578-0.046875-0.046875-0.09375-0.09375-0.14062-0.11719-2.8008-2.1016-5.9258-3.8047-9.3086-4.9922-3.6641-1.3086-7.5586-2.1484-11.668-2.1484l-11.664 0.003907v35c0 28.164-20.066 51.73-46.668 57.145v12.855c0 19.297 15.703 35 35 35h93.332c4.7148 0 8.9844-2.8477 10.781-7.2109 1.8438-4.3867 0.83984-9.3789-2.4961-12.738zm-229.93-166.74h23.332v-23.332h-23.332zm-116.67 46.668h23.332v-23.332h-23.332zm0-46.668h23.332v-23.332h-23.332zm46.668 46.668h46.668v-23.332h-46.668zm0-46.668h46.668v-23.332h-46.668z"/>
</svg>
